# xmcd
#
# Track frame offsets: 
#        150
#        31837
#        53997
#        75050
#        90982
#        106432
#        128560
#        152960
#        175040
#        200927
#
# Disc length: 3102 seconds
#
# Revision: 2
# Processed by: cddbd v1.5.2PL0 Copyright (c) Steve Scherf et al.
# Submitted via: ExactAudioCopyFreeDBPlugin 1.0
#
DISCID=720c1c0a
DTITLE=Bill Evans - Big Artists Library Jazz
DYEAR=1900
DGENRE=Jazz
TTITLE0=Waltz For Debby
TTITLE1=My Foolish Heart
TTITLE2=I Wish I Knew
TTITLE3=How Deep Is The Ocean?
TTITLE4=Haunted Heart
TTITLE5=Someday My Prince Will Come
TTITLE6=Blue In Green
TTITLE7=When I Fall In Love
TTITLE8=When You Wish Upon A Star
TTITLE9=You And The Night And The Music
EXTD=
EXTT0=
EXTT1=
EXTT2=
EXTT3=
EXTT4=
EXTT5=
EXTT6=
EXTT7=
EXTT8=
EXTT9=
PLAYORDER=
